<?xml version="1.0" encoding="UTF-8"?>
<svg width="120px" height="120px" viewBox="0 0 120 120" version="1.1" xmlns="http://www.w3.org/2000/svg" xmlns:xlink="http://www.w3.org/1999/xlink">
    <!-- Generator: Sketch 63 (92445) - https://sketch.com -->
    <title>基础设置</title>
    <desc>Created with Sketch.</desc>
    <defs>
        <circle id="path-1" cx="60" cy="60" r="60"></circle>
        <filter x="-10.0%" y="-10.0%" width="120.0%" height="120.0%" filterUnits="objectBoundingBox" id="filter-2">
            <feGaussianBlur stdDeviation="12" in="SourceAlpha" result="shadowBlurInner1"></feGaussianBlur>
            <feOffset dx="0" dy="0" in="shadowBlurInner1" result="shadowOffsetInner1"></feOffset>
            <feComposite in="shadowOffsetInner1" in2="SourceAlpha" operator="arithmetic" k2="-1" k3="1" result="shadowInnerInner1"></feComposite>
            <feColorMatrix values="0 0 0 0 0.231764482   0 0 0 0 0.933266255   0 0 0 0 1  0 0 0 1 0" type="matrix" in="shadowInnerInner1"></feColorMatrix>
        </filter>
        <filter x="-42.2%" y="-42.2%" width="184.4%" height="184.4%" filterUnits="objectBoundingBox" id="filter-3">
            <feOffset dx="0" dy="4" in="SourceAlpha" result="shadowOffsetOuter1"></feOffset>
            <feGaussianBlur stdDeviation="5" in="shadowOffsetOuter1" result="shadowBlurOuter1"></feGaussianBlur>
            <feColorMatrix values="0 0 0 0 6.92497677e-05   0 0 0 0 0.344716233   0 0 0 0 0.726845562  0 0 0 1 0" type="matrix" in="shadowBlurOuter1" result="shadowMatrixOuter1"></feColorMatrix>
            <feMerge>
                <feMergeNode in="shadowMatrixOuter1"></feMergeNode>
                <feMergeNode in="SourceGraphic"></feMergeNode>
            </feMerge>
        </filter>
    </defs>
    <g id="页面-1" stroke="none" stroke-width="1" fill="none" fill-rule="evenodd">
        <g id="首页备份" transform="translate(-574.000000, -501.000000)">
            <g id="基础设置" transform="translate(554.000000, 481.000000)">
                <g id="基础设置_export" transform="translate(20.000000, 20.000000)">
                    <g id="基础设置">
                        <g id="椭圆形">
                            <use fill="#0266E3" fill-rule="evenodd" xlink:href="#path-1"></use>
                            <use fill="black" fill-opacity="1" filter="url(#filter-2)" xlink:href="#path-1"></use>
                        </g>
                        <g id="摄像头" filter="url(#filter-3)" transform="translate(28.000000, 26.000000)" fill-rule="nonzero">
                            <rect id="矩形" fill="#1890FF" opacity="0" x="0" y="0" width="64" height="64"></rect>
                            <g id="编组-3" fill="#04E7FB">
                                <path d="M62.0876089,19.7138124 L59.8826516,19.7138124 C58.8736034,19.7138124 57.8022683,18.9414545 57.5032911,18.0009219 L56.2388664,14.9986921 C55.7592571,14.1329038 55.9585752,12.8497931 56.6686462,12.1521795 L58.2320481,10.6261497 C58.5754079,10.2938386 58.769262,9.8364462 58.769262,9.35861078 C58.769262,8.88077535 58.5754079,8.42338297 58.2320481,8.09107181 L55.6346833,5.55599389 C54.9183836,4.85838029 53.7536181,4.85838029 53.0373184,5.55599389 L51.4739165,7.08202361 C50.7638456,7.77963721 49.4495914,7.966498 48.5588883,7.50557474 L45.4881428,6.27229355 C44.5226955,5.97954501 43.7316515,4.93312462 43.7316515,3.94276248 L43.7316515,1.79386349 C43.7316515,0.809730058 42.8970067,1.42108547e-14 41.8941871,1.42108547e-14 L38.2254872,1.42108547e-14 C37.2102102,1.42108547e-14 36.3817941,0.809730058 36.3817941,1.79386349 L36.3817941,3.94276248 C36.3817941,4.92689591 35.5969788,5.9733163 34.6315314,6.26606484 L31.5545573,7.49934603 C30.6638542,7.966498 29.3558287,7.7734085 28.639529,7.0757949 L27.0698985,5.54976518 C26.3660562,4.85838029 25.195062,4.85838029 24.484991,5.55599389 L21.8876262,8.09107181 C21.5442663,8.42338297 21.3504123,8.88077535 21.3504123,9.35861078 C21.3504123,9.8364462 21.5442663,10.2938386 21.8876262,10.6261497 L23.4447994,12.1521795 C24.161099,12.8497931 24.3541885,14.1329037 23.8745792,14.9986921 L22.6163832,18.0009219 C22.3174059,18.9414545 21.2460708,19.7138124 20.2370226,19.7138124 L18.0320654,19.7138124 C17.0230172,19.7138124 16.194601,20.5173137 16.194601,21.5076759 L16.194601,25.0891742 C16.194601,26.0733076 17.0230172,26.8830377 18.0320654,26.8830377 L20.2370226,26.8830377 C21.2460708,26.8830377 22.317406,27.6553956 22.6163832,28.5959282 L23.8870365,31.5981581 C24.0053817,31.8161624 24.0863547,32.0590814 24.1237268,32.3144578 C24.6967666,32.0777674 25.3071785,31.9469649 25.9425051,31.9469649 C27.1944724,31.9469649 28.3779239,32.4265742 29.268627,33.2985912 L31.2306652,35.2107998 C32.127597,36.0828168 32.6445785,37.3098693 32.6445785,38.5618365 C32.6445785,38.8732711 32.613435,39.1909345 32.5511481,39.4961404 L34.6439888,40.3307852 C35.6094362,40.6235338 36.3942515,41.6699542 36.3942515,42.6540876 L36.3942515,44.7967579 C36.3942515,45.7808913 37.2226676,46.5906214 38.2317158,46.5906214 L41.9004158,46.5906214 C42.9032354,46.5906214 43.7378801,45.7808914 43.7378802,44.7967579 L43.7378802,42.6540876 C43.7378802,41.6699542 44.5289242,40.6235338 45.4943715,40.3307852 L48.5713457,39.0975041 C49.4620487,38.6303522 50.7763029,38.8172129 51.4926026,39.5148265 L53.0497758,41.0408562 C53.7660754,41.7384698 54.930841,41.7384698 55.6471406,41.0408562 L58.2445055,38.5057783 C58.5878653,38.1734671 58.7817193,37.7160747 58.7817193,37.2382393 C58.7817193,36.7604039 58.5878653,36.3030115 58.2445055,35.9707004 L56.6686462,34.4446706 C55.9585753,33.7532857 55.7592571,32.4639464 56.2388664,31.5981581 L57.5032911,28.5959282 C57.8022683,27.6553956 58.8798321,26.8892664 59.8826516,26.8892664 L62.0876089,26.8892664 C63.0966571,26.8892664 63.9188445,26.0857651 63.9188445,25.0954029 L63.9188445,21.5076759 C63.9188445,20.5173137 63.0966571,19.7138124 62.0876089,19.7138124 Z M40.0629515,32.2521708 C34.9927956,32.2521708 30.8818584,28.2408927 30.8818584,23.2953107 C30.8818584,18.3497287 34.9927956,14.3384506 40.0629515,14.3384506 C45.1331073,14.3384506 49.2440445,18.3497287 49.2440445,23.2953107 C49.2440445,28.2471214 45.1331073,32.2521708 40.0629515,32.2521708 Z" id="形状"></path>
                                <path d="M31.9158214,45.1891655 L30.383563,45.1891655 C29.6797208,45.1891655 28.9385064,44.6534979 28.7267308,43.9994853 L27.8484851,41.9128732 C27.5183644,41.30869 27.6553956,40.4179869 28.1474624,39.9321489 L29.2312549,38.8732711 C29.7295503,38.3874331 29.7295503,37.5963891 29.2312549,37.1105511 L27.424934,35.3478311 C26.9266386,34.861993 26.1169085,34.861993 25.6186131,35.3478311 L24.5348206,36.4067088 C24.0427538,36.8925469 23.127136,37.0233494 22.5042667,36.6994574 L20.3740539,35.8398978 C19.7075838,35.6405797 19.1532301,34.9118226 19.1532301,34.2266664 L19.1532301,32.7317802 C19.1532301,32.046624 18.5739617,31.4860416 17.8763481,31.4860416 L15.3225841,31.4860416 C14.6187418,31.4860416 14.0457021,32.046624 14.0457021,32.7317802 L14.0457021,34.2266664 C14.0457021,34.9118226 13.4975771,35.6405797 12.8248783,35.8398978 L10.6884367,36.6994574 C10.0655674,37.0233494 9.15617828,36.8925469 8.66411159,36.4067088 L7.57409035,35.3478311 C7.07579496,34.861993 6.2660649,34.861993 5.76776945,35.3478311 L3.96144855,37.1105511 C3.46315315,37.5963892 3.46315315,38.3874332 3.96144855,38.8732711 L5.04524108,39.9321489 C5.54353647,40.4179869 5.6805677,41.30869 5.34421839,41.9128732 L4.46597271,43.9994853 C4.26042586,44.653498 3.51298271,45.1891655 2.8091404,45.1891655 L1.27688203,45.1891655 C0.573039782,45.1891655 1.42108547e-14,45.7497479 1.42108547e-14,46.4349041 L1.42108547e-14,48.9263812 C1.42108547e-14,49.6115373 0.573039719,50.1721197 1.27688203,50.1721197 L2.8091404,50.1721197 C3.51298264,50.1721197 4.25419708,50.7077873 4.459744,51.3618 L5.34421839,53.4484121 C5.67433912,54.0525953 5.54353653,54.949527 5.04524108,55.4291363 L3.9552199,56.4880141 C3.46315315,56.9738521 3.46315315,57.7648961 3.9552199,58.2507342 L5.76154074,60.0134542 C6.25983613,60.4992922 7.06956619,60.4992922 7.56786165,60.0134542 L8.65788288,58.9545764 C9.14994963,58.4687384 10.0655674,58.3379358 10.682208,58.6680566 L12.8248783,59.5276162 C13.4975771,59.733163 14.0457021,60.4556914 14.0457021,61.1408476 L14.0457021,62.6295051 C14.0457021,63.3146613 14.6187418,63.8752437 15.3225841,63.8752437 L17.8763481,63.8752437 C18.5739617,63.8752437 19.1532301,63.3146613 19.1532301,62.6295051 L19.1532301,61.1408476 C19.1532301,60.4556914 19.701355,59.7269343 20.3740539,59.5276162 L22.5104954,58.6680566 C23.127136,58.3441646 24.0427539,58.4749671 24.5410493,58.9545764 L25.6248418,60.0134542 C26.1231372,60.4992922 26.9328672,60.4992922 27.4311627,60.0134542 L29.2374835,58.2507342 C29.7357789,57.7648961 29.7357789,56.9738521 29.2374835,56.4880141 L28.153691,55.4291363 C27.6616243,54.949527 27.524593,54.0525953 27.8547138,53.4484121 L28.7329594,51.3618 C28.944735,50.7077873 29.6859494,50.1721198 30.3897917,50.1721197 L31.9220501,50.1721197 C32.6258924,50.1721197 33.1989321,49.6115373 33.1989321,48.9263812 L33.1989321,46.4349041 C33.1927034,45.7497479 32.6196637,45.1891655 31.9158214,45.1891655 M22.9838761,47.6806426 C22.9838761,51.1251097 20.1249062,53.9093353 16.599466,53.9093353 C13.0740259,53.9093353 10.215056,51.118881 10.215056,47.6806426 C10.215056,44.2424042 13.074026,41.4519395 16.599466,41.4519395 C20.1249061,41.4457212 22.9838761,44.2361755 22.9838761,47.6806426" id="形状"></path>
                            </g>
                        </g>
                    </g>
                </g>
            </g>
        </g>
    </g>
</svg>