<?xml version="1.0" encoding="UTF-8"?>
<svg width="20px" height="19px" viewBox="0 0 20 19" version="1.1" xmlns="http://www.w3.org/2000/svg" xmlns:xlink="http://www.w3.org/1999/xlink">
    <!-- Generator: Sketch 63 (92445) - https://sketch.com -->
    <title>日历</title>
    <desc>Created with Sketch.</desc>
    <g id="页面-1" stroke="none" stroke-width="1" fill="none" fill-rule="evenodd">
        <g id="可视化指挥-最新警情-警情详情" transform="translate(-320.000000, -72.000000)" fill="#19DEFF" fill-rule="nonzero">
            <g id="日历" transform="translate(293.000000, 71.000000)">
                <g transform="translate(27.000000, 0.000000)" id="形状">
                    <path d="M5.72265625,10.4752604 L6.56684028,10.4752604 C7.18967014,10.4752604 7.69314236,9.97178819 7.69314236,9.34895833 C7.69314236,8.72612847 7.18967014,8.22265625 6.56684028,8.22265625 L5.72265625,8.22265625 C5.09982639,8.22265625 4.59635417,8.72612847 4.59635417,9.34895833 C4.59635417,9.97178819 5.09982639,10.4752604 5.72265625,10.4752604 Z M9.57682292,10.4752604 L10.4210069,10.4752604 C11.0438368,10.4752604 11.547309,9.97178819 11.547309,9.34895833 C11.547309,8.72612847 11.0438368,8.22265625 10.4210069,8.22265625 L9.57682292,8.22265625 C8.95399306,8.22265625 8.45052083,8.72612847 8.45052083,9.34895833 C8.45269097,9.97178819 8.95616319,10.4752604 9.57682292,10.4752604 Z M13.4331597,10.4752604 L14.2773438,10.4752604 C14.9001736,10.4752604 15.4036458,9.97178819 15.4036458,9.34895833 C15.4036458,8.72612847 14.9001736,8.22265625 14.2773438,8.22265625 L13.4331597,8.22265625 C12.8103299,8.22265625 12.3068576,8.72612847 12.3068576,9.34895833 C12.3090278,9.97178819 12.8125,10.4752604 13.4331597,10.4752604 Z M5.72265625,14.7916667 L6.56684028,14.7916667 C7.18967014,14.7916667 7.69314236,14.2881944 7.69314236,13.6653646 C7.69314236,13.0425347 7.18967014,12.5390625 6.56684028,12.5390625 L5.72265625,12.5390625 C5.09982639,12.5390625 4.59635417,13.0425347 4.59635417,13.6653646 C4.59635417,14.2881944 5.09982639,14.7916667 5.72265625,14.7916667 L5.72265625,14.7916667 Z M9.57682292,14.7916667 L10.4210069,14.7916667 C11.0438368,14.7916667 11.547309,14.2881944 11.547309,13.6653646 C11.547309,13.0425347 11.0438368,12.5390625 10.4210069,12.5390625 L9.57682292,12.5390625 C8.95399306,12.5390625 8.45052083,13.0425347 8.45052083,13.6653646 C8.45269097,14.2881944 8.95616319,14.7916667 9.57682292,14.7916667 Z M13.4331597,14.7916667 L14.2773438,14.7916667 C14.9001736,14.7916667 15.4036458,14.2881944 15.4036458,13.6653646 C15.4036458,13.0425347 14.9001736,12.5390625 14.2773438,12.5390625 L13.4331597,12.5390625 C12.8103299,12.5390625 12.3068576,13.0425347 12.3068576,13.6653646 C12.3090278,14.2881944 12.8125,14.7916667 13.4331597,14.7916667 Z M17.8819444,2.14409722 L16.7556424,2.14409722 L16.7556424,1.58203125 C16.7556424,1.27170139 16.5039063,1.01996528 16.1935764,1.01996528 L15.0672743,1.01996528 C14.7569444,1.01996528 14.5052083,1.27170139 14.5052083,1.58203125 L14.5052083,2.14409722 L5.49913194,2.14409722 L5.49913194,1.58203125 C5.49913194,1.27170139 5.24739583,1.01996528 4.93706597,1.01996528 L3.81076389,1.01996528 C3.50043403,1.01996528 3.24869792,1.27170139 3.24869792,1.58203125 L3.24869792,2.14409722 L2.12239583,2.14409722 C1.49956597,2.14409722 0.99609375,2.64756944 0.99609375,3.27039931 L0.99609375,17.905816 C0.99609375,18.5286458 1.49956597,19.0321181 2.12239583,19.0321181 L17.8841146,19.0321181 C18.5069444,19.0321181 19.0104167,18.5286458 19.0104167,17.905816 L19.0104167,3.27039931 C19.0060764,2.64973958 18.5026042,2.14409722 17.8819444,2.14409722 Z M16.9292535,16.9335938 L3.02734375,16.9335938 L3.02734375,6.43012153 L16.9292535,6.43012153 L16.9292535,16.9335938 L16.9292535,16.9335938 Z"></path>
                </g>
            </g>
        </g>
    </g>
</svg>