<?xml version="1.0" encoding="UTF-8"?>
<svg width="21px" height="21px" viewBox="0 0 21 21" version="1.1" xmlns="http://www.w3.org/2000/svg" xmlns:xlink="http://www.w3.org/1999/xlink">
    <!-- Generator: Sketch 55.1 (78136) - https://sketchapp.com -->
    <!-- <title>首页 </title> -->
    <desc>Created with Sketch.</desc>
    <defs>
        <radialGradient cx="50%" cy="50%" fx="50%" fy="50%" r="66.3174831%" gradientTransform="translate(0.500000,0.500000),rotate(90.000000),scale(1.000000,1.038365),translate(-0.500000,-0.500000)" id="radialGradient-1">
            <stop stop-color="#00FFFF" stop-opacity="0" offset="0%"></stop>
            <stop stop-color="#00FEFE" stop-opacity="0.219378278" offset="100%"></stop>
        </radialGradient>
        <circle id="path-2" cx="9.80392157" cy="9.80392157" r="9.80392157"></circle>
        <filter x="-19.1%" y="-19.1%" width="138.2%" height="138.2%" filterUnits="objectBoundingBox" id="filter-3">
            <feMorphology radius="2" operator="erode" in="SourceAlpha" result="shadowSpreadInner1"></feMorphology>
            <feGaussianBlur stdDeviation="2.5" in="shadowSpreadInner1" result="shadowBlurInner1"></feGaussianBlur>
            <feOffset dx="0" dy="0" in="shadowBlurInner1" result="shadowOffsetInner1"></feOffset>
            <feComposite in="shadowOffsetInner1" in2="SourceAlpha" operator="arithmetic" k2="-1" k3="1" result="shadowInnerInner1"></feComposite>
            <feColorMatrix values="0 0 0 0 0   0 0 0 0 1   0 0 0 0 1  0 0 0 0.248033217 0" type="matrix" in="shadowInnerInner1"></feColorMatrix>
        </filter>
    </defs>
    <g id="页面1" stroke="none" stroke-width="1" fill="none" fill-rule="evenodd">
        <g id="画板" transform="translate(-171.000000, -165.000000)">
            <g id="首页--2" transform="translate(172.000000, 166.000000)">
                <g id="首页-">
                    <g id="椭圆形">
                        <use fill="url(#radialGradient-1)" fill-rule="evenodd" xlink:href="#path-2"></use>
                        <use fill="black" fill-opacity="1" filter="url(#filter-3)" xlink:href="#path-2"></use>
                        <use stroke="#00FFFF" stroke-width="0.5" xlink:href="#path-2"></use>
                    </g>
                    <g id="编组" opacity="0.5" transform="translate(9.913003, 9.913003) rotate(-6.000000) translate(-9.913003, -9.913003) translate(0.893395, 0.893395)" fill="#00FFFF">
                        <polygon id="矩形" points="8.83497025 0.213619785 9.06525811 0.213619785 9.06525811 0.980883212 8.83497025 0.980883212"></polygon>
                        <polygon id="矩形" transform="translate(10.457829, 0.732884) rotate(10.000000) translate(-10.457829, -0.732884) " points="10.3427236 0.349254698 10.5730081 0.349239189 10.5729337 1.11651355 10.3426491 1.11652906"></polygon>
                        <polygon id="矩形" transform="translate(11.917084, 1.135423) rotate(21.000000) translate(-11.917084, -1.135423) " points="11.8020198 0.75178283 12.0322937 0.751752487 12.032148 1.5190625 11.8018741 1.51909285"></polygon>
                        <polygon id="矩形" transform="translate(13.280978, 1.791929) rotate(31.000000) translate(-13.280978, -1.791929) " points="13.1659449 1.40826939 13.3962039 1.40822935 13.3960117 2.17558901 13.1657527 2.17562905"></polygon>
                        <polygon id="矩形" transform="translate(14.505675, 2.681303) rotate(41.000000) translate(-14.505675, -2.681303) " points="14.3906625 2.29761573 14.6209035 2.29757083 14.620688 3.0649904 14.3904469 3.0650353"></polygon>
                        <polygon id="矩形" transform="translate(15.551812, 3.774959) rotate(51.000000) translate(-15.551812, -3.774959) " points="15.4368072 3.39123997 15.6670293 3.39119561 15.6668164 4.15867814 15.4365943 4.15872249"></polygon>
                        <polygon id="矩形" transform="translate(16.385764, 5.037746) rotate(62.000000) translate(-16.385764, -5.037746) " points="16.2707531 4.65399184 16.5009561 4.65395424 16.5007757 5.42150049 16.2705727 5.42153808"></polygon>
                        <polygon id="矩形" transform="translate(16.980729, 6.429077) rotate(72.000000) translate(-16.980729, -6.429077) " points="16.8656983 6.04529493 17.0958878 6.04526827 17.0957598 6.81285983 16.8655704 6.81288648"></polygon>
                        <polygon id="矩形" transform="translate(17.317583, 7.904234) rotate(82.000000) translate(-17.317583, -7.904234) " points="17.2025226 7.52043083 17.4327037 7.52041833 17.4326437 8.2880375 17.2024626 8.28805"></polygon>
                        <polygon id="矩形" transform="translate(17.385500, 9.415804) rotate(93.000000) translate(-17.385500, -9.415804) " points="17.2703989 9.0319888 17.5005782 9.03199354 17.500601 9.79961875 17.2704217 9.79961401"></polygon>
                        <polygon id="矩形" transform="translate(17.182296, 10.915203) rotate(103.000000) translate(-17.182296, -10.915203) " points="17.0671565 10.5313893 17.297341 10.5314091 17.2974364 11.299017 17.0672519 11.2989971"></polygon>
                        <polygon id="矩形" transform="translate(16.714504, 12.354240) rotate(113.000000) translate(-16.714504, -12.354240) " points="16.5993278 11.9704385 16.8295234 11.9704712 16.82968 12.738042 16.5994843 12.7380094"></polygon>
                        <polygon id="矩形" transform="translate(15.997157, 13.686663) rotate(123.000000) translate(-15.997157, -13.686663) " points="15.8819523 13.3028834 16.1121637 13.3029248 16.1123625 14.0704434 15.8821512 14.0704019"></polygon>
                        <polygon id="矩形" transform="translate(15.053313, 14.869647) rotate(134.000000) translate(-15.053313, -14.869647) " points="14.9380887 14.485899 15.1683202 14.4859443 15.1685377 15.2533955 14.9383062 15.2533502"></polygon>
                        <polygon id="矩形" transform="translate(13.913307, 15.865170) rotate(144.000000) translate(-13.913307, -15.865170) " points="13.7980785 15.4814539 14.0283288 15.481497 14.0285358 16.2488858 13.7982855 16.2488427"></polygon>
                        <polygon id="矩形" transform="translate(12.613780, 16.641234) rotate(154.000000) translate(-12.613780, -16.641234) " points="12.4985607 16.2575498 12.7288277 16.2575856 12.7289992 17.0249187 12.4987323 17.024883"></polygon>
                        <polygon id="矩形" transform="translate(11.196500, 17.172897) rotate(165.000000) translate(-11.196500, -17.172897) " points="11.0813049 16.7892419 11.3115854 16.7892646 11.3116943 17.5565523 11.0814137 17.5565297"></polygon>
                        <polygon id="矩形" transform="translate(9.707018, 17.443070) rotate(175.000000) translate(-9.707018, -17.443070) " points="9.59185607 17.0594333 9.8221431 17.0594412 9.8221809 17.8267074 9.59189387 17.8266995"></polygon>
                        <polygon id="矩形" transform="translate(8.193210, 17.443070) rotate(185.000000) translate(-8.193210, -17.443070) " points="8.07808526 17.0594412 8.30837229 17.0594333 8.3083345 17.8266995 8.07804746 17.8267074"></polygon>
                        <polygon id="矩形" transform="translate(6.703729, 17.172897) rotate(195.000000) translate(-6.703729, -17.172897) " points="6.58864293 16.7892646 6.8189235 16.7892419 6.81881467 17.5565297 6.5885341 17.5565523"></polygon>
                        <polygon id="矩形" transform="translate(5.286448, 16.641234) rotate(206.000000) translate(-5.286448, -16.641234) " points="5.17140069 16.2575856 5.40166763 16.2575498 5.40149611 17.024883 5.17122917 17.0249187"></polygon>
                        <polygon id="矩形" transform="translate(3.986921, 15.865170) rotate(216.000000) translate(-3.986921, -15.865170) " points="3.87189961 15.481497 4.10214986 15.4814539 4.10194285 16.2488427 3.87169259 16.2488858"></polygon>
                        <polygon id="矩形" transform="translate(2.846915, 14.869647) rotate(226.000000) translate(-2.846915, -14.869647) " points="2.73190816 14.4859443 2.9621397 14.485899 2.96192217 15.2533502 2.73169063 15.2533955"></polygon>
                        <polygon id="矩形" transform="translate(1.903071, 13.686663) rotate(237.000000) translate(-1.903071, -13.686663) " points="1.78806471 13.3029248 2.01827602 13.3028834 2.01807717 14.0704019 1.78786586 14.0704434"></polygon>
                        <polygon id="矩形" transform="translate(1.185724, 12.354240) rotate(247.000000) translate(-1.185724, -12.354240) " points="1.07070494 11.9704712 1.30090059 11.9704385 1.30074401 12.7380094 1.07054837 12.738042"></polygon>
                        <polygon id="矩形" transform="translate(0.717932, 10.915203) rotate(257.000000) translate(-0.717932, -10.915203) " points="0.602887336 10.5314091 0.833071871 10.5313893 0.832976454 11.2989971 0.602791918 11.299017"></polygon>
                        <polygon id="矩形" transform="translate(0.514728, 9.415804) rotate(267.000000) translate(-0.514728, -9.415804) " points="0.399650135 9.03199354 0.629829461 9.0319888 0.629806709 9.79961401 0.399627383 9.79961875"></polygon>
                        <polygon id="矩形" transform="translate(0.582645, 7.904234) rotate(278.000000) translate(-0.582645, -7.904234) " points="0.467524622 7.52041833 0.697705758 7.52043083 0.697765754 8.28805 0.467584618 8.2880375"></polygon>
                        <polygon id="矩形" transform="translate(0.919499, 6.429077) rotate(288.000000) translate(-0.919499, -6.429077) " points="0.804340613 6.04526827 1.03453003 6.04529493 1.03465797 6.81288648 0.804468552 6.81285983"></polygon>
                        <polygon id="矩形" transform="translate(1.514464, 5.037746) rotate(298.000000) translate(-1.514464, -5.037746) " points="1.39927223 4.65395424 1.62947525 4.65399184 1.6296557 5.42153808 1.39945269 5.42150049"></polygon>
                        <polygon id="矩形" transform="translate(2.348417, 3.774959) rotate(309.000000) translate(-2.348417, -3.774959) " points="2.23319904 3.39119561 2.46342117 3.39123997 2.46363408 4.15872249 2.23341195 4.15867814"></polygon>
                        <polygon id="矩形" transform="translate(3.394553, 2.681303) rotate(319.000000) translate(-3.394553, -2.681303) " points="3.27932486 2.29757083 3.50956588 2.29761573 3.50978142 3.0650353 3.27954041 3.0649904"></polygon>
                        <polygon id="矩形" transform="translate(4.619250, 1.791929) rotate(329.000000) translate(-4.619250, -1.791929) " points="4.50402444 1.40822935 4.73428343 1.40826939 4.73447562 2.17562905 4.50421663 2.17558901"></polygon>
                        <polygon id="矩形" transform="translate(5.983144, 1.135423) rotate(339.000000) translate(-5.983144, -1.135423) " points="5.86793469 0.751752487 6.09820857 0.75178283 6.09835422 1.51909285 5.86808033 1.5190625"></polygon>
                        <polygon id="矩形" transform="translate(7.442400, 0.732884) rotate(350.000000) translate(-7.442400, -0.732884) " points="7.32722021 0.349239189 7.55750479 0.349254698 7.55757924 1.11652906 7.32729466 1.11651355"></polygon>
                    </g>
                    <g id="home-7-fill" transform="translate(4.313725, 4.313725)">
                        <polygon id="路径" points="0 0 10.9803922 0 10.9803922 10.9803922 0 10.9803922"></polygon>
                        <path d="M8.69281046,9.1503268 C8.69281046,9.40300609 8.48797341,9.60784314 8.23529412,9.60784314 L1.83006536,9.60784314 C1.57738606,9.60784314 1.37254902,9.40300609 1.37254902,9.1503268 L1.37254902,5.03267974 L0,5.03267974 L4.72477124,0.73751634 C4.89932221,0.578692581 5.16603727,0.578692581 5.34058824,0.73751634 L10.0653595,5.03267974 L8.69281046,5.03267974 L8.69281046,9.1503268 Z M5.03267974,6.8627451 C5.66437798,6.8627451 6.17647059,6.35065249 6.17647059,5.71895425 C6.17647059,5.08725601 5.66437798,4.5751634 5.03267974,4.5751634 C4.4009815,4.5751634 3.88888889,5.08725601 3.88888889,5.71895425 C3.88888889,6.35065249 4.4009815,6.8627451 5.03267974,6.8627451 Z" id="形状" fill="#00FFFF" fill-rule="nonzero"></path>
                    </g>
                </g>
            </g>
        </g>
    </g>
</svg>