<?xml version="1.0" encoding="UTF-8"?>
<svg width="20px" height="20px" viewBox="0 0 20 20" version="1.1" xmlns="http://www.w3.org/2000/svg" xmlns:xlink="http://www.w3.org/1999/xlink">
    <!-- Generator: Sketch 63 (92445) - https://sketch.com -->
    <title>退出</title>
    <desc>Created with Sketch.</desc>
    <g id="页面-1" stroke="none" stroke-width="1" fill="none" fill-rule="evenodd">
        <g id="综合统计" transform="translate(-1800.000000, -71.000000)" fill="#19DEFF" fill-rule="nonzero">
            <g id="退出_export" transform="translate(1800.000000, 71.000000)">
                <g id="退出">
                    <rect id="矩形" opacity="0" x="0" y="0" width="20" height="20"></rect>
                    <path d="M10,-3.55271368e-15 C15.5228475,-3.55271368e-15 20,4.4771525 20,10 C20,15.5228475 15.5228475,20 10,20 C4.4771525,20 -3.55271368e-15,15.5228475 -3.55271368e-15,10 C-3.55271368e-15,4.4771525 4.4771525,-3.55271368e-15 10,-3.55271368e-15 Z M13.303,13.922 L13.2833058,13.8259627 C13.1877548,13.4855411 12.8457442,13.3269436 12.4366347,13.3269436 C11.9531416,13.3269436 11.5633653,13.5463259 11.5633653,14.029819 L11.5633653,14.0596379 C11.5292865,14.2896699 11.3546326,14.2193823 11.1267306,14.2683706 L6.84345048,14.2683706 C6.6112886,14.2193823 6.43237487,14.0255591 6.40468584,13.7870075 L6.40468584,5.80404686 C6.43450479,5.53567625 6.65388711,5.32694356 6.92651757,5.30990415 L11.0457934,5.30990415 C11.3120341,5.32481363 11.5271565,5.314164 11.5654952,5.57188498 L11.5654952,5.61235357 C11.5676251,6.09371672 11.9574015,6.18530351 12.4387646,6.18530351 C12.9201278,6.18530351 13.3120341,6.09371672 13.3120341,5.61022364 L13.3120341,4.85835996 L13.3035144,4.85835996 L13.3035144,5.01810437 C13.3035144,4.2172524 12.6538871,3.56762513 11.8530351,3.56762513 L11.8423855,3.56762513 L11.8423855,3.56549521 L10.6900958,3.56549521 L10.6900958,3.56336528 L7.26943557,3.56336528 L7.26943557,3.56549521 L6.1171459,3.56549521 L6.1171459,3.56762513 L6.10649627,3.56762513 C5.34824281,3.56762513 4.72417465,4.15122471 4.66240682,4.89456869 L4.66240682,14.6986155 C4.73695421,15.42918 5.35463259,16.0021299 6.10436635,16.0021299 L6.11501597,16.0021299 L6.11501597,16.0042599 L7.26730564,16.0042599 L7.26730564,16.0127796 L10.6900958,16.0127796 L10.6900958,16.0042599 L11.8423855,16.0042599 L11.8423855,16.0021299 L11.8530351,16.0021299 C12.6538871,16.0021299 13.3035144,15.3525027 13.3035144,14.5516507 L13.3031198,13.9233304 L13.3031198,13.9233304 L13.3099042,14.029819 L13.3099042,13.8168264 L13.3035144,13.8168264 L13.303,13.922 Z M12.6751864,7.14376997 C12.3343983,7.48455804 12.3343983,8.03620873 12.6751864,8.37699681 L13.345,9.047 L8.94142705,9.04792332 C8.4600639,9.04792332 8.06815761,9.43982961 8.06815761,9.92119276 C8.06815761,10.4025559 8.45793397,10.7944622 8.94142705,10.7944622 L13.346,10.794 L12.7050053,11.4355698 C12.3642173,11.7742279 12.3642173,12.3280085 12.7050053,12.6687966 C13.0457934,13.0095847 13.5974441,13.0095847 13.9382322,12.6687966 L16.0681576,10.5388711 C16.4089457,10.1980831 16.4089457,9.64643237 16.0681576,9.3056443 L13.9084132,7.14376997 C13.5676251,6.8029819 13.0159744,6.8029819 12.6751864,7.14376997 Z" id="形状结合"></path>
                </g>
            </g>
        </g>
    </g>
</svg>