<?xml version="1.0" encoding="UTF-8"?>
<svg width="48px" height="48px" viewBox="0 0 48 48" version="1.1" xmlns="http://www.w3.org/2000/svg" xmlns:xlink="http://www.w3.org/1999/xlink">
    <!-- Generator: Sketch 63 (92445) - https://sketch.com -->
    <title>电话</title>
    <desc>Created with Sketch.</desc>
    <g id="页面-1" stroke="none" stroke-width="1" fill="none" fill-rule="evenodd">
        <g id="可视化指挥-电话" transform="translate(-940.000000, -679.000000)" fill-rule="nonzero">
            <g id="摄像头弹窗备份" transform="translate(714.000000, 338.000000)">
                <g id="编组-9" transform="translate(150.000000, 340.000000)">
                    <g id="电话_export" transform="translate(76.000000, 1.000000)">
                        <g id="电话" transform="translate(24.000000, 24.000000) rotate(-270.000000) translate(-24.000000, -24.000000) translate(-0.000000, 0.000000)">
                            <rect id="矩形" fill="#000000" opacity="0" x="6.22222222" y="6.22222222" width="35.5555556" height="35.5555556"></rect>
                            <path d="M38.5454545,31.4020202 C33.6969697,27.5167677 32.2876768,29.459394 30.1713131,31.5781818 C28.5850505,33.1668687 24.7062626,29.900606 21.4440404,26.5454545 C18.0945455,23.1911111 14.8339394,19.2177778 16.420202,17.8052525 C18.6238384,15.5991919 20.4751515,14.2739394 16.5963636,9.41818181 C12.7175758,4.56323233 10.0727273,8.27070705 7.95797979,10.389495 C5.48929292,12.8622222 7.7810101,22.0428283 16.8606061,31.1361616 C25.940202,40.1414142 35.1078788,42.5252525 37.5765657,40.0533333 C39.6921212,37.9345455 43.4828283,35.2856566 38.5462626,31.4012121 L38.5454545,31.4020202 Z" id="路径" fill="#0C286B" transform="translate(24.000219, 24.000072) rotate(-315.000000) translate(-24.000219, -24.000072) "></path>
                        </g>
                    </g>
                </g>
            </g>
        </g>
    </g>
</svg>