<?xml version="1.0" encoding="UTF-8"?>
<svg width="20px" height="20px" viewBox="0 0 20 20" version="1.1" xmlns="http://www.w3.org/2000/svg" xmlns:xlink="http://www.w3.org/1999/xlink">
    <!-- Generator: Sketch 63 (92445) - https://sketch.com -->
    <title>用户</title>
    <desc>Created with Sketch.</desc>
    <g id="页面-1" stroke="none" stroke-width="1" fill="none" fill-rule="evenodd">
        <g id="综合统计" transform="translate(-1569.000000, -71.000000)" fill-rule="nonzero">
            <g id="admin" transform="translate(1569.000000, 71.000000)">
                <g id="用户_export">
                    <g id="用户">
                        <rect id="矩形" fill="#1890FF" opacity="0" x="0" y="0" width="20" height="20"></rect>
                        <path d="M4.07913355,5.90984975 C4.07913355,9.17376963 6.72506341,11.8196995 9.9889833,11.8196995 C13.2529032,11.8196995 15.898833,9.17376963 15.898833,5.90984975 C15.898833,2.64592986 13.2529032,0 9.9889833,0 C6.72506341,0 4.07913355,2.64592986 4.07913355,5.90984975 Z" id="路径" fill="#19DEFF"></path>
                        <path d="M15.6984992,11.7863105 C15.2310534,11.4190317 14.5632738,11.4524207 14.129217,11.8864775 C13.0607696,12.9549249 11.5916544,13.6227045 9.95559432,13.6227045 C8.3195342,13.6227045 6.85041902,12.9549249 5.78197162,11.8864775 C5.34791486,11.4524207 4.68013523,11.3856427 4.21268949,11.7863105 C2.40968447,13.3222037 1.07412521,15.2921536 0.640068457,17.9966611 C0.473123555,19.0984975 1.24107012,20 2.37629549,20 L17.6350601,20 C18.7368965,20 19.5382321,19.0984975 19.3712871,17.9966611 C18.9038414,15.2921536 17.5682821,13.3222037 15.6984992,11.7863105 Z" id="路径" fill="#19DEFF"></path>
                    </g>
                </g>
            </g>
        </g>
    </g>
</svg>